<svg width="10" height="11" viewBox="0 0 10 11" fill="none" xmlns="http://www.w3.org/2000/svg">
<path fill-rule="evenodd" clip-rule="evenodd" d="M6.68898 1.31775H9.84101C9.92748 1.31775 10 1.37293 10 1.44577V2.1521C10 2.22273 9.92748 2.28012 9.83821 2.28012H0.161785C0.0725243 2.28012 0 2.22273 0 2.1521V1.44577C0 1.37514 0.0725243 1.31775 0.161785 1.31775H2.33194H3.31381C3.31381 1.31223 3.31311 1.30616 3.31241 1.30009C3.31172 1.29402 3.31102 1.28795 3.31102 1.28243V0.896156C3.31102 0.401725 3.81869 0 4.44351 0H5.55928C6.1841 0 6.69177 0.401725 6.69177 0.896156V1.28243C6.69177 1.28795 6.69107 1.29402 6.69038 1.30009C6.68968 1.30616 6.68898 1.31223 6.68898 1.31775ZM4.4463 0.759305C4.35146 0.759305 4.27336 0.821109 4.27336 0.896156H4.27615V1.28243C4.27615 1.29161 4.27883 1.29973 4.28141 1.30753C4.28255 1.31098 4.28366 1.31436 4.28452 1.31775H5.72385C5.72471 1.31436 5.72582 1.31098 5.72696 1.30753C5.72954 1.29974 5.73222 1.29161 5.73222 1.28243V0.896156C5.73222 0.821109 5.65412 0.759305 5.55928 0.759305H4.4463ZM0.161785 2.82349H9.84101C9.92748 2.82349 10 2.87867 10 2.95151V3.65784C10 3.72847 9.92748 3.78586 9.83821 3.78586H8.98745L8.45467 9.9839C8.41283 10.4629 7.91074 10.8337 7.30544 10.8337H2.82287C2.22594 10.8337 1.72664 10.4717 1.67643 9.99936L1.01255 3.78586H0.161785C0.0725243 3.78586 0 3.72847 0 3.65784V2.95151C0 2.88088 0.0725243 2.82349 0.161785 2.82349Z" fill="#E9862A"/>
</svg>
