<svg width="9" height="17" viewBox="0 0 9 17" fill="none" xmlns="http://www.w3.org/2000/svg">
<path d="M8.66125 0.127603L6.50108 0.125122C4.0732 0.125122 2.50519 1.74366 2.50519 4.24649V6.14781H0.332683C0.145164 6.14781 -0.0078125 6.30036 -0.0078125 6.49136V9.24473C-0.0078125 9.432 0.145164 9.5858 0.332683 9.5858H2.50519V16.5362C2.50519 16.726 2.65693 16.8748 2.84445 16.8748H5.67945C5.86697 16.8748 6.01871 16.726 6.01871 16.5362V9.5858H8.56009C8.74637 9.5858 8.89935 9.432 8.89935 9.24473V6.49136C8.89935 6.39834 8.86357 6.31276 8.80065 6.24951C8.73527 6.18377 8.65015 6.14781 8.56009 6.14781H6.01871V4.53795C6.01871 3.76279 6.20253 3.37087 7.20551 3.37087H8.66125C8.84877 3.37087 9.00051 3.21708 9.00051 3.02856V0.469913C9.00051 0.280154 8.84877 0.127603 8.66125 0.127603Z" fill="#E9862A"/>
</svg>
