<svg width="153" height="132" viewBox="0 0 153 132" fill="none" xmlns="http://www.w3.org/2000/svg">
<g clip-path="url(#clip0_4987_38)">
<path d="M0 28.75C0 12.8718 12.8718 0 28.75 0H124.25C140.128 0 153 12.8718 153 28.75C153 44.6282 140.128 57.5 124.25 57.5H102.467C92.2482 57.5 83.6727 65.2039 82.5817 75.3646L76.5 132L70.0232 75.2328C68.8705 65.1299 60.3206 57.5 50.1521 57.5H28.75C12.8718 57.5 0 44.6282 0 28.75Z" fill="#0214FD"/>
<path fill-rule="evenodd" clip-rule="evenodd" d="M97.3981 23.0013C96.424 23.0387 95.6836 23.7493 95.6836 24.647C95.6836 25.582 96.4629 26.2926 97.3981 26.2926C98.3723 26.2926 99.1516 25.5446 99.1516 24.647C99.1906 23.7493 98.3723 22.9639 97.3981 23.0013ZM57.3797 26.8161C57.4966 27.3397 57.5745 27.8633 57.5745 28.3869C57.5745 31.379 57.5745 34.3712 57.4966 37.3633V37.4755C57.4966 37.5877 57.4966 37.6251 57.3797 37.6251H57.2628H54.5741H54.4572C54.3793 37.6251 54.3403 37.5503 54.3403 37.4755V37.2885V32.6881V27.9007C54.3403 27.4145 54.1455 26.9657 53.8727 26.629C53.8532 26.6103 53.8435 26.5916 53.8337 26.5729C53.824 26.5542 53.8143 26.5355 53.7948 26.5168L53.6779 26.4046C53.6584 26.4046 53.6486 26.3953 53.6389 26.3859C53.6292 26.3766 53.6194 26.3672 53.5999 26.3672C53.2492 26.0306 52.7427 25.8436 52.1971 25.8436H50.2878C49.1188 25.8436 48.1446 26.7787 48.1446 27.9007V37.4755C48.1446 37.5503 48.1056 37.5877 48.0277 37.5877H47.9108H45.2221H45.1052C45.0272 37.5877 44.9883 37.5129 44.9883 37.4381V37.3259V28.3869C44.9883 27.8633 45.0662 27.3397 45.1831 26.8161C45.5338 25.32 46.469 24.1979 47.9498 23.5247C48.6122 23.2255 49.3136 23.0759 50.054 23.0759H50.1709H52.392H52.5089C53.2492 23.1133 53.9506 23.2255 54.6131 23.5247C56.0938 24.1605 56.99 25.2826 57.3797 26.8161ZM68.1331 23.8613C70.3152 24.7216 71.718 26.255 72.3025 28.4617C72.5363 29.2472 72.6532 30.0326 72.6532 30.818C72.4974 33.2865 71.4063 35.2688 69.1852 36.5779C68.3279 37.1015 67.3538 37.3633 66.3406 37.4755C65.951 37.5129 64.704 37.5503 63.7299 37.5503H63.613H61.3529H60.5735H60.3787C60.3398 37.5503 60.3008 37.5503 60.3008 37.4755V37.2885V30.444V23.6369C60.3008 23.3377 60.3008 23.3377 60.6125 23.3377C62.1322 23.3003 63.6909 23.3003 65.2106 23.3377C66.1848 23.3751 67.1979 23.4873 68.1331 23.8613ZM65.7561 34.6704C66.8862 34.5208 67.8214 33.9598 68.4838 33.0621C69.1852 32.1645 69.4969 31.1546 69.38 29.9578C69.2242 28.2373 68.0941 26.7039 66.0289 26.2924C65.6782 26.2083 65.3275 26.1872 64.9768 26.1662C64.8599 26.1592 64.743 26.1522 64.6261 26.1428C64.4702 26.1428 64.3144 26.1335 64.1585 26.1241C64.0026 26.1148 63.8468 26.1054 63.6909 26.1054C63.4571 26.1054 63.4571 26.1054 63.4571 26.3298V26.4794V34.7078H63.4571C64.3144 34.7078 65.4834 34.7078 65.7561 34.6704ZM49.5469 32.1271C49.5469 31.1921 50.3262 30.4815 51.3004 30.4815C52.2356 30.4815 53.0149 31.2295 53.0539 32.1271C53.0539 33.0622 52.2745 33.7728 51.3004 33.7728C50.3262 33.7728 49.5469 33.0622 49.5469 32.1271ZM41.7149 34.708H39.8835H39.6887C39.4549 34.708 39.1821 34.708 38.9483 34.6706C36.6882 34.2965 35.3634 32.6135 35.2075 30.8556C35.1296 29.6587 35.4413 28.6115 36.2596 27.7139C37.0389 26.8536 38.0521 26.4048 39.26 26.2926C39.4316 26.2799 39.6076 26.2716 39.7851 26.2631H39.7851C40.1316 26.2466 40.4837 26.2299 40.8187 26.1804C41.7149 26.0682 42.3774 25.6194 42.7281 24.8339C42.8892 24.4937 42.997 24.1023 43.0956 23.7443L43.0957 23.7442L43.0957 23.7441C43.1163 23.6693 43.1365 23.596 43.1567 23.5249C43.1957 23.4127 43.1567 23.3753 43.0398 23.3753H42.9229H39.4549C38.7145 23.3753 37.9352 23.4875 37.1558 23.7493C35.2854 24.3477 33.8437 25.395 32.9085 27.1154C32.4798 27.9383 32.1681 28.7985 32.0512 29.6961C31.9733 30.3694 31.9733 31.08 32.1291 31.7532C32.4798 33.3615 33.2592 34.7454 34.5451 35.83C35.9479 36.9894 37.5845 37.5505 39.4159 37.6253C40.1563 37.6627 40.8966 37.6627 41.637 37.6627H41.7149C42.5332 37.6627 43.2346 36.9894 43.2346 36.204C43.2346 35.3438 42.5722 34.708 41.7149 34.708ZM83.5659 28.4244C83.1762 28.1252 82.7476 27.9008 82.28 27.7512C80.2537 27.0405 78.3833 27.3024 76.7467 28.6114C75.305 29.7709 74.7205 31.3043 74.9153 33.0996C75.0712 34.6705 75.8115 35.9047 77.1364 36.8024C78.3444 37.6252 79.6692 37.887 81.111 37.7C82.4748 37.513 83.6438 36.952 84.579 35.9795L84.6009 35.9535L84.6179 35.9334L84.618 35.9334C84.67 35.8723 84.6959 35.8418 84.6959 35.8112C84.6959 35.7807 84.67 35.7501 84.618 35.6891L84.6179 35.689C84.6063 35.6753 84.5933 35.66 84.579 35.6429C83.9556 34.8949 82.8255 34.5957 81.8903 34.8949C81.8242 34.9107 81.758 34.9334 81.6889 34.957L81.6889 34.957C81.5951 34.989 81.4959 35.023 81.3838 35.0445C80.1758 35.4185 79.1627 35.1193 78.2664 34.259C78.2275 34.2216 78.1495 34.1468 78.1495 34.0346C78.1885 34.0346 78.2275 34.0346 78.2275 33.9972C79.377 33.7354 80.5363 33.483 81.6955 33.2305L81.6958 33.2304C82.855 32.978 84.0141 32.7256 85.1635 32.4638C85.3973 32.4264 85.3973 32.4264 85.3973 32.1646C85.3973 31.7531 85.3584 31.3791 85.2415 30.9677C85.0077 29.9579 84.5011 29.0602 83.5659 28.4244ZM82.5138 31.4913C82.0462 31.6035 81.5883 31.7064 81.1305 31.8092C80.6726 31.9121 80.2148 32.015 79.7472 32.1272C79.4159 32.202 79.075 32.2768 78.734 32.3516C78.393 32.4264 78.0521 32.5012 77.7209 32.576C77.7079 32.576 77.6949 32.5801 77.6819 32.5843C77.6559 32.5926 77.63 32.6009 77.604 32.576C77.565 32.3142 77.604 32.0898 77.6819 31.8279C77.9157 30.9303 78.4613 30.2571 79.3965 29.9953C79.903 29.8457 80.4875 29.8083 80.9941 29.9205C81.8124 30.0701 82.319 30.5937 82.5917 31.3417C82.693 31.4389 82.6481 31.4519 82.5583 31.478C82.5444 31.482 82.5295 31.4863 82.5138 31.4913ZM120.973 30.893C121.012 31.3792 121.012 31.8654 121.012 32.3516C121.012 33.9599 121.012 35.6056 120.973 37.139V37.2138C120.973 37.4429 120.973 37.4429 120.816 37.4393C120.794 37.4388 120.769 37.4382 120.739 37.4382H118.479C118.444 37.4382 118.413 37.4387 118.387 37.4391C118.293 37.4406 118.247 37.4413 118.225 37.4187C118.203 37.3966 118.204 37.3524 118.206 37.2653L118.206 37.2437C118.206 37.2326 118.206 37.2209 118.206 37.2085C118.206 37.1983 118.206 37.1876 118.206 37.1764V31.8654C118.206 31.4914 118.167 31.1548 118.051 30.7808C117.895 30.2197 117.505 29.8831 116.882 29.8457C116.687 29.8457 116.492 29.8457 116.297 29.8831C115.752 29.9953 115.44 30.3319 115.284 30.8182C115.167 31.1922 115.128 31.5662 115.128 31.9402V37.2138C115.128 37.2476 115.129 37.277 115.129 37.3027C115.13 37.3899 115.131 37.434 115.11 37.4561C115.087 37.4787 115.041 37.478 114.948 37.4765C114.921 37.4761 114.89 37.4756 114.855 37.4756H112.634C112.535 37.4756 112.487 37.4756 112.463 37.4513C112.439 37.4276 112.439 37.3809 112.439 37.2886V34.0721C112.4 33.0623 112.4 32.0524 112.439 31.0426C112.478 29.2099 113.842 27.7886 115.713 27.452C116.765 27.265 117.856 27.3398 118.83 27.826C120.155 28.4619 120.856 29.5091 120.973 30.893ZM93.1125 32.5388C92.8008 32.3143 92.4891 32.1273 92.1773 31.9403C91.9825 31.8468 91.7779 31.7533 91.5734 31.6598C91.3688 31.5663 91.1642 31.4728 90.9694 31.3793L90.268 31.0427C90.1121 30.9679 89.9562 30.8557 89.8393 30.7061C89.6445 30.4443 89.7224 30.1077 89.9952 29.958C90.19 29.8458 90.3849 29.8084 90.5797 29.8458C90.7745 29.8832 90.9304 29.958 91.0863 30.0328C91.3797 30.2018 91.6953 30.3496 91.9996 30.4922C92.0994 30.5389 92.198 30.5851 92.2942 30.6313C92.7229 30.8183 93.1905 30.8931 93.6581 30.7809C93.7147 30.766 93.7632 30.7545 93.8046 30.7446C93.9234 30.7163 93.9828 30.7021 94.0063 30.6651C94.0299 30.6281 94.0176 30.5683 93.993 30.4486L93.993 30.4485C93.9861 30.4147 93.9782 30.3762 93.9698 30.3321V30.2573C93.697 29.1352 93.0736 28.3498 91.9435 27.9384C91.0083 27.6017 90.0342 27.5269 89.06 27.7888C88.0858 28.0132 87.3844 28.5742 87.0727 29.5092C86.9168 29.958 86.9168 30.4443 86.9948 30.9305C87.0727 31.5289 87.3844 31.9403 87.891 32.3143C88.0469 32.4265 88.2417 32.5388 88.4365 32.6136C88.6898 32.7257 88.943 32.8473 89.1963 32.9688L89.1964 32.9689C89.4497 33.0904 89.7029 33.212 89.9562 33.3242C90.3069 33.4738 90.6187 33.6608 90.9304 33.8852C91.2032 34.0722 91.2811 34.334 91.2032 34.6332C91.1252 34.9699 90.9304 35.1943 90.5797 35.2691C90.1121 35.3813 89.6835 35.3065 89.3328 35.0447C89.2571 35.0011 89.1874 34.9519 89.119 34.9037C89.0111 34.8276 88.9064 34.7538 88.7872 34.708C88.1248 34.2966 87.1506 34.4462 86.6051 35.0073C86.4492 35.1569 86.4103 35.3065 86.4882 35.4935C86.683 35.9049 86.9168 36.2415 87.2675 36.5407C88.1638 37.2514 89.1769 37.6628 90.3459 37.6628C91.2032 37.6628 91.9825 37.4384 92.7229 37.1017C93.1905 36.8773 93.5412 36.5407 93.8139 36.0919C94.1257 35.5309 94.2426 34.9325 94.1646 34.334C94.0477 33.5486 93.736 32.9502 93.1125 32.5388ZM98.8018 27.7888V28.7238C98.8018 31.5663 98.8018 34.3715 98.7628 37.214C98.7628 37.2518 98.7633 37.285 98.7637 37.314C98.7653 37.417 98.766 37.4676 98.7411 37.4922C98.717 37.5159 98.6689 37.5152 98.5744 37.5139C98.5496 37.5136 98.5216 37.5132 98.4901 37.5132H96.269C96.1505 37.5132 96.092 37.5132 96.0632 37.484C96.0352 37.4556 96.0352 37.3995 96.0352 37.2888V32.5388V27.901V27.7888C96.0352 27.6966 96.0352 27.6498 96.0585 27.6261C96.0825 27.6018 96.1312 27.6018 96.23 27.6018H97.2431H98.607C98.8018 27.6018 98.8018 27.6392 98.8018 27.7888ZM110.763 33.3989V34.9697C110.725 35.8497 110.762 36.7298 110.8 37.645L110.802 37.7V37.7374C110.725 38.7099 110.413 39.6075 109.789 40.3181C109.594 40.5426 109.361 40.767 109.088 40.9914C108.425 41.4776 107.685 41.7394 106.906 41.889C105.893 42.1134 104.841 42.1134 103.827 42.0012C103.204 41.9264 102.619 41.7768 101.996 41.5898C101.957 41.5524 101.957 41.5524 101.918 41.5524C101.84 41.5524 101.801 41.515 101.801 41.4402V41.3654C101.821 41.3093 101.84 41.2438 101.86 41.1784C101.879 41.1129 101.899 41.0475 101.918 40.9914C101.957 40.8231 102.006 40.6641 102.054 40.5052C102.103 40.3462 102.152 40.1872 102.191 40.0189C102.224 39.9058 102.251 39.7996 102.276 39.6974C102.31 39.5632 102.341 39.4357 102.386 39.3083C102.397 39.2864 102.405 39.2677 102.412 39.2522C102.428 39.2148 102.436 39.1961 102.464 39.1961H102.58C102.77 39.2164 102.949 39.2476 103.122 39.2779C103.269 39.3036 103.412 39.3286 103.555 39.3457C103.71 39.3644 103.876 39.3831 104.042 39.4018C104.207 39.4205 104.373 39.4392 104.529 39.4579C104.685 39.4953 104.841 39.4953 104.996 39.4953C105.308 39.4953 105.62 39.4953 105.932 39.4205L106.399 39.3083C106.633 39.2335 106.828 39.1587 107.023 39.0465C107.179 38.9343 107.334 38.8221 107.49 38.6725C107.763 38.3733 107.958 37.9993 108.036 37.5504C108.075 37.4383 108.075 37.3261 108.075 37.2139V37.2138V36.5406C107.568 37.139 106.594 37.5504 105.464 37.5504C105.23 37.5504 105.035 37.5504 104.841 37.513C104.812 37.5084 104.782 37.5038 104.753 37.4992C104.54 37.4659 104.305 37.429 104.1 37.3634C103.321 37.139 102.697 36.8398 102.152 36.4284C101.606 36.017 101.217 35.4933 100.905 34.8949C100.71 34.4835 100.554 34.0347 100.476 33.5485C100.398 33.1744 100.359 32.763 100.359 32.389C100.359 31.2296 100.71 30.1449 101.489 29.1351C101.84 28.6863 102.269 28.3122 102.775 28.013C102.834 27.9756 102.902 27.9476 102.97 27.9195C103.038 27.8915 103.107 27.8634 103.165 27.826C103.555 27.639 103.983 27.5268 104.451 27.452C105.191 27.3398 105.932 27.3024 106.633 27.452C106.867 27.4894 107.101 27.5642 107.334 27.639C107.802 27.7886 108.192 28.013 108.581 28.2374C109.711 28.9481 110.413 30.0327 110.647 31.454C110.686 31.6036 110.725 31.7906 110.725 31.9402C110.725 32.1085 110.734 32.2675 110.744 32.4264C110.754 32.5854 110.763 32.7443 110.763 32.9126V33.3989ZM104.841 34.9323C105.074 34.9697 105.308 35.0071 105.581 35.0071C106.594 35.0071 107.49 34.6331 107.997 34.0721C107.958 33.4737 107.958 32.9126 107.958 32.3142V32.0898C107.919 31.9028 107.88 31.7532 107.841 31.6036C107.802 31.5288 107.773 31.4633 107.744 31.3979C107.714 31.3324 107.685 31.267 107.646 31.1922V31.1548C107.618 31.045 107.547 30.9554 107.481 30.8711C107.457 30.8405 107.433 30.8106 107.412 30.7807C107.373 30.7807 107.373 30.7433 107.373 30.7433C107.295 30.6311 107.179 30.5189 107.062 30.4441L107.023 30.4067L106.672 30.1823C106.672 30.1449 106.633 30.1449 106.633 30.1449C106.555 30.1262 106.487 30.0982 106.419 30.0701C106.351 30.0421 106.282 30.014 106.204 29.9953H106.165C106.01 29.9579 105.854 29.9205 105.698 29.9205H105.659H105.152C104.256 29.9953 103.516 30.5937 103.243 31.454C103.19 31.5308 103.173 31.6252 103.155 31.725C103.147 31.771 103.138 31.8182 103.126 31.8654C103.126 31.9402 103.116 32.0057 103.107 32.0711C103.097 32.1366 103.087 32.202 103.087 32.2768C103.087 32.6508 103.126 33.0622 103.243 33.4737C103.477 34.2591 104.061 34.7453 104.841 34.9323Z" fill="white"/>
</g>
<defs>
<clipPath id="clip0_4987_38">
<rect width="153" height="132" fill="white"/>
</clipPath>
</defs>
</svg>
